<?xml version="1.0"?>
<svg xmlns="http://www.w3.org/2000/svg" id="Layer_1" data-name="Layer 1" viewBox="0 0 128 128" width="512" height="512"><title>EMAIL</title><path d="M25.717,41.05a1.25,1.25,0,0,0,1.722-.4l.322-.511a1.25,1.25,0,1,0-2.105-1.348l-.339.536A1.25,1.25,0,0,0,25.717,41.05Z"/><path d="M28.967,64a35.99,35.99,0,0,1,11.9-26.711A5.359,5.359,0,1,0,33.7,29.322a46.546,46.546,0,0,0-4.2,4.307,1.25,1.25,0,0,0,1.9,1.627,44.075,44.075,0,0,1,3.978-4.075,2.858,2.858,0,1,1,3.824,4.25,38.425,38.425,0,0,0,0,57.14,2.858,2.858,0,1,1-3.825,4.249A44.114,44.114,0,0,1,24.778,45.6a1.25,1.25,0,0,0-2.272-1.043A46.614,46.614,0,0,0,33.7,98.677a5.318,5.318,0,0,0,3.579,1.377c.1,0,.191,0,.288-.008a5.358,5.358,0,0,0,3.3-9.334A35.995,35.995,0,0,1,28.967,64Z"/><path d="M53.443,79.586a19.341,19.341,0,0,1,0-31.172,5.379,5.379,0,0,0,2.183-4.319,5.359,5.359,0,0,0-8.535-4.312,30.046,30.046,0,0,0-4.217,44.664,1.25,1.25,0,0,0,1.835-1.7A27.546,27.546,0,0,1,48.571,41.8a2.858,2.858,0,1,1,3.389,4.6,21.841,21.841,0,0,0,0,35.2,2.859,2.859,0,0,1-3.39,4.6,1.25,1.25,0,1,0-1.481,2.014,5.359,5.359,0,1,0,6.353-8.631Z"/><path d="M94.3,29.323a5.358,5.358,0,1,0-7.169,7.965,35.925,35.925,0,0,1,0,53.423,5.359,5.359,0,0,0,3.3,9.335c.1,0,.192.008.288.008A5.315,5.315,0,0,0,94.3,98.677a46.53,46.53,0,0,0,9.46-11.823,1.25,1.25,0,0,0-2.18-1.225,44.064,44.064,0,0,1-8.953,11.19,2.908,2.908,0,0,1-2.062.731A2.859,2.859,0,0,1,88.8,92.569a38.425,38.425,0,0,0,0-57.14,2.858,2.858,0,1,1,3.825-4.249,44.11,44.11,0,0,1,11.566,48.936,1.25,1.25,0,0,0,2.327.914A46.61,46.61,0,0,0,94.3,29.323Z"/><path d="M84.881,43.29a1.25,1.25,0,0,0-1.814,1.721A27.546,27.546,0,0,1,79.429,86.2a2.858,2.858,0,1,1-3.389-4.6,21.841,21.841,0,0,0,0-35.2,2.858,2.858,0,0,1,3.39-4.6,1.25,1.25,0,1,0,1.481-2.014A5.359,5.359,0,0,0,72.375,44.1a5.379,5.379,0,0,0,2.182,4.318,19.341,19.341,0,0,1,0,31.172,5.358,5.358,0,1,0,6.352,8.631A30.047,30.047,0,0,0,84.881,43.29Z"/><path d="M68.6,73.161c-.121.061-.245.12-.369.177a1.25,1.25,0,1,0,1.044,2.271c.152-.07.3-.142.453-.218a1.25,1.25,0,1,0-1.128-2.23Z"/><path d="M76.347,67.192a12.752,12.752,0,1,0-12.918,9.545c.19.008.381.013.572.013.391,0,.781-.018,1.166-.053a1.25,1.25,0,0,0-.228-2.49,10.239,10.239,0,1,1,8.987-7.639,1.789,1.789,0,0,1-1.73,1.348h0a1.78,1.78,0,0,1-1.778-1.778v-7.3a1.25,1.25,0,1,0-2.5,0v.095a6.413,6.413,0,1,0,.691,9.524,4.27,4.27,0,0,0,3.586,1.962h0A4.289,4.289,0,0,0,76.347,67.192ZM64,67.915A3.915,3.915,0,1,1,67.915,64,3.919,3.919,0,0,1,64,67.915Z"/></svg>
