<?xml version="1.0"?>
<svg xmlns="http://www.w3.org/2000/svg" id="Layer_1" data-name="Layer 1" viewBox="0 0 128 128" width="512" height="512"><title>INFO</title><path d="M64,36.976A27.024,27.024,0,1,0,91.024,64,27.055,27.055,0,0,0,64,36.976Zm0,51.549A24.524,24.524,0,1,1,88.524,64,24.552,24.552,0,0,1,64,88.524Z"/><path d="M64.128,47.107H64a8.987,8.987,0,0,0-8.984,8.986,1.25,1.25,0,0,0,2.5,0,6.485,6.485,0,0,1,6.58-6.485A6.609,6.609,0,0,1,70.485,56a6.451,6.451,0,0,1-3.019,5.576,9.757,9.757,0,0,0-4.716,8.181V72.67a1.25,1.25,0,0,0,2.5,0V69.757A7.274,7.274,0,0,1,68.8,63.688a8.934,8.934,0,0,0,4.181-7.723A9.045,9.045,0,0,0,64.128,47.107Z"/><path d="M64,76.653a2.12,2.12,0,1,0,2.12,2.12A2.123,2.123,0,0,0,64,76.653Z"/><path d="M93.677,81.65A34.533,34.533,0,0,0,44.693,35.367a1.25,1.25,0,0,0,1.4,2.072A32.031,32.031,0,0,1,91.234,80.856a1.25,1.25,0,0,0-.111,1.091l3.186,8.671-8.354-2.5a1.25,1.25,0,1,0-.718,2.395l10.748,3.223A1.25,1.25,0,0,0,97.518,92.1Z"/><path d="M79.811,91.855A32.029,32.029,0,0,1,40.917,41.8a1.25,1.25,0,1,0-1.8-1.733A34.529,34.529,0,0,0,81.048,94.026a1.25,1.25,0,1,0-1.237-2.172Z"/></svg>
